<svg xmlns="http://www.w3.org/2000/svg" data-name="Layer 1" viewBox="0 0 32 32"><path fill="#58565d" d="M23.32064,10.83412l.46468-.63126A1,1,0,0,0,23.5728,8.8047L19.54612,5.84061a1,1,0,0,0-1.39815.21252l-.46424.63067a1.00988,1.00988,0,0,1-1.115.35339A12.49516,12.49516,0,0,0,2.6269,11.971,12.61459,12.61459,0,0,0,5.1626,28.76731a12.49663,12.49663,0,0,0,18.152-16.76464A1.00875,1.00875,0,0,1,23.32064,10.83412Z"/><path fill="#e5303e" d="M12.91141,28.54942a9.50127,9.50127,0,1,1,5.64954-17.15367h0a9.501,9.501,0,0,1-4.204,17.04418A9.63046,9.63046,0,0,1,12.91141,28.54942Zm.03711-18.05459a8.63818,8.63818,0,0,0-1.30638.09928,8.54926,8.54926,0,1,0,6.35562,1.56617h0A8.48657,8.48657,0,0,0,12.94852,10.49483Z"/><circle cx="12.929" cy="19.046" r="8.999" fill="#e5303e" transform="rotate(-53.643 12.93 19.046)"/><circle cx="12.928" cy="19.047" r="1.5" fill="#fff" transform="rotate(-53.643 12.928 19.047)"/><path d="M15.28418,15.01367l-1.6189,2.182a1.99985,1.99985,0,0,0-2.3479.66467,1.97759,1.97759,0,0,0-.243.456l-2.40149.02936a.5.5,0,0,0,.00586,1h.00635l2.26514-.02765a1.99855,1.99855,0,1,0,3.52173-1.53192l1.615-2.17676a.49981.49981,0,1,0-.80273-.5957Zm-1.55078,4.625a.99881.99881,0,1,1,.18359-.74219A.99052.99052,0,0,1,13.7334,19.63867ZM25.76221,4.85547a.49973.49973,0,0,0-.63672.30664,1.116,1.116,0,0,1-1.03369.66113c-.17334.01953-.3501.02441-.52734.03027A4.543,4.543,0,0,0,22.46,5.98145a2.56705,2.56705,0,0,0-1.06628.5979L19.84229,5.4375a1.49878,1.49878,0,0,0-2.09668.31836l-.46484.63086a.51256.51256,0,0,1-.56738.1709A12.99807,12.99807,0,1,0,12.93066,32.002a13.21663,13.21663,0,0,0,1.73828-.11523A12.99385,12.99385,0,0,0,23.729,11.72266a.50975.50975,0,0,1-.00537-.59277L24.188,10.498a1.49945,1.49945,0,0,0-.31885-2.09668L22.22491,7.19116a1.519,1.519,0,0,1,.49823-.24487,3.79864,3.79864,0,0,1,.874-.09375c.20313-.00586.40576-.01367.59717-.03418a2.06921,2.06921,0,0,0,1.87549-1.32617A.50008.50008,0,0,0,25.76221,4.85547ZM23.27637,9.20605a.50032.50032,0,0,1,.106.69922l-.46436.63086v.001a1.51712,1.51712,0,0,0-.01758,1.74512A11.99721,11.99721,0,0,1,5.47412,28.376,12.18934,12.18934,0,0,1,3.04,12.251,11.96634,11.96634,0,0,1,16.42383,7.51465a1.51562,1.51562,0,0,0,1.66211-.53516l.46484-.63086a.5015.5015,0,0,1,.69873-.10645l1.89874,1.39752.00165.00189.00171.00061Zm1.53076-5.07227a.49117.49117,0,0,0,.084.00684.501.501,0,0,0,.49268-.416l.522-3.07617a.50026.50026,0,0,0-.98633-.168l-.522,3.07617A.5011.5011,0,0,0,24.80713,4.13379Zm2.56543.69336a.49745.49745,0,0,0,.40527-.207l1.855-2.56152a.49968.49968,0,1,0-.80957-.58594l-1.855,2.56152a.49938.49938,0,0,0,.4043.793Zm-8.51562,6.166a9.909,9.909,0,0,0-7.3075-1.845.471.471,0,0,0-.05579-.00262c-.01172.00183-.02057.00916-.032.01172-.01245.00189-.0249.002-.03735.00391a9.93123,9.93123,0,0,0-6.45691,3.845c-.0094.01074-.02228.01636-.03088.02808-.00513.007-.0058.01556-.01056.02277-.01562.02087-.03357.03925-.049.06024a9.99415,9.99415,0,0,0,2.11206,13.97c.00592.00476.00873.01178.01489.01636l.01294.00421a9.91807,9.91807,0,0,0,5.8938,1.94012,10.13631,10.13631,0,0,0,1.52148-.11523l.02478-.005c.01636-.00092.03271-.00128.04944-.00378.01379-.00214.02429-.01068.0376-.01385a9.934,9.934,0,0,0,6.43848-3.93634c.0202-.02747.03589-.05682.05579-.08441l.00525-.00446.00543-.01172a9.9661,9.9661,0,0,0,1.75421-7.36536c-.00092-.011.00323-.02106.00159-.0321a.49474.49474,0,0,0-.01837-.05115A9.961,9.961,0,0,0,18.85693,10.99316Zm1.59277,7.33691a.49721.49721,0,0,0,.0752-.00586l1.34149-.20215a8.94979,8.94979,0,0,1-1.35614,5.75311l-1.145-.83807a.49993.49993,0,0,0-.59082.80664l1.15228.84344a8.91307,8.91307,0,0,1-5.083,3.14349l-.22943-1.48694a.5.5,0,1,0-.98828.15234l.2301,1.49152a8.9219,8.9219,0,0,1-5.84143-1.416l.9082-1.23566a.49983.49983,0,1,0-.80566-.5918l-.90778,1.235a8.91621,8.91621,0,0,1-3.09387-5.16284l1.58026-.24213a.4999.4999,0,1,0-.15137-.98828l-1.57208.24091a8.91,8.91,0,0,1,1.49127-5.78613l1.2312.90265a.49993.49993,0,1,0,.59082-.80664l-1.22107-.8952a8.9107,8.9107,0,0,1,5.09094-3.00714L11.376,11.666a.50008.50008,0,0,0,.49365.42383.51146.51146,0,0,0,.07666-.00586.49968.49968,0,0,0,.418-.57031l-.2168-1.40778c.2677-.02362.53619-.061.80225-.061A8.90482,8.90482,0,0,1,17.84,11.53436l-.83221,1.12872a.49991.49991,0,0,0,.10547.69922.49444.49444,0,0,0,.29639.09766.49977.49977,0,0,0,.40283-.20312l.84106-1.14069a8.95048,8.95048,0,0,1,3.05609,5.01874l-1.33417.201a.49986.49986,0,0,0,.07422.99414ZM30.49121,6l-3,.05273a.5.5,0,0,0,.00879,1h.00879l3-.05273A.50011.50011,0,0,0,31,6.49121.51745.51745,0,0,0,30.49121,6Z"/></svg>